<?xml version="1.0" encoding="UTF-8"?>
<svg id="Layer_1" data-name="Layer 1" xmlns="http://www.w3.org/2000/svg" viewBox="0 0 85.13 83.29">
  <defs>
    <style>
      .cls-1 {
        fill: #8e4246;
        fill-rule: evenodd;
      }
    </style>
  </defs>
  <path class="cls-1" d="M17.85,40.82c0-13.17,11.29-23.85,25.2-23.85s25.2,10.68,25.2,23.85-11.29,23.85-25.2,23.85c-3.05,0-5.96-.51-8.66-1.44,1.72-4.35,3.37-8.69,4.98-13.07,1.72,1.16,3.89,1.88,6.66,1.88,5.75,0,11.78-3.59,13.29-10.68,1.89-8.9-5.64-17.38-16.23-17.38-4.45,0-8.83,1.71-12.13,4.38-3.29,2.7-5.68,6.57-5.68,11.05,0,2.19.7,4.59,2.35,6.19,1.16,1.1,3.05,1.1,4.21,0,1.12-1.06,1.16-2.81.07-3.9-2.31-2.74.74-7.29,2.94-9.1,2.28-1.88,5.33-3.01,8.24-3.01,7.19,0,11.5,5.54,10.45,10.68-.91,4.24-4.31,6.16-7.47,6.16-2.42,0-3.72-.96-4.56-2.22.46-1.37.84-2.6,1.12-3.59.56-2.09.91-4.55-1.05-6.12-1.47-1.16-3.19-.89-4.24-.41-1.96.92-3.12,3.11-3.12,5.3,0,1.23.21,3.15.95,5.13-1.89,5.41-3.96,10.78-6.03,16.12-6.77-4.28-11.22-11.57-11.22-19.85l-.07.03ZM43.02,11.33c-17.18,0-31.13,13.21-31.13,29.5s13.92,29.5,31.13,29.5,31.13-13.21,31.13-29.5-13.92-29.5-31.13-29.5Z"/>
</svg>