<?xml version="1.0" encoding="UTF-8"?>
<svg id="Layer_1" data-name="Layer 1" xmlns="http://www.w3.org/2000/svg" viewBox="0 0 104.66 96.55">
  <defs>
    <style>
      .cls-1 {
        fill: #744b4a;
        fill-rule: evenodd;
      }
    </style>
  </defs>
  <path class="cls-1" d="M23.17,38.1c0-7.71,6.55-13.97,14.66-13.97h23.43c8.08,0,14.66,6.26,14.66,13.97v22.37c0,7.71-6.55,13.97-14.66,13.97h-23.43c-8.08,0-14.66-6.26-14.66-13.97v-22.37ZM37.8,29.7c-4.85,0-8.79,3.75-8.79,8.38v22.37c0,4.63,3.95,8.38,8.79,8.38h23.43c4.85,0,8.79-3.75,8.79-8.38v-22.37c0-4.63-3.95-8.38-8.79-8.38h-23.43ZM60.08,35.88c0-1.55,1.32-2.78,2.93-2.78h.03c1.62,0,2.93,1.26,2.93,2.78s-1.32,2.78-2.93,2.78h-.03c-1.62,0-2.93-1.26-2.93-2.78ZM49.53,40.89c-4.85,0-8.79,3.75-8.79,8.38s3.95,8.38,8.79,8.38,8.79-3.75,8.79-8.38-3.95-8.38-8.79-8.38ZM34.9,49.26c0-7.71,6.55-13.97,14.66-13.97s14.66,6.26,14.66,13.97-6.55,13.97-14.66,13.97-14.66-6.26-14.66-13.97Z"/>
</svg>