<?xml version="1.0" encoding="UTF-8"?>
<svg id="Layer_1" data-name="Layer 1" xmlns="http://www.w3.org/2000/svg" viewBox="0 0 89.92 88.45">
  <defs>
    <style>
      .cls-1 {
        fill: #3d623f;
        stroke: #000;
        stroke-miterlimit: 10;
        stroke-width: .25px;
      }
    </style>
  </defs>
  <path class="cls-1" d="M13.82,27.01c0-4.32,3.3-7.79,7.43-7.79h44.46c4.09,0,7.43,3.51,7.43,7.79v31.21c0,4.32-3.3,7.79-7.43,7.79H21.24c-4.09,0-7.43-3.51-7.43-7.79v-31.21ZM21.24,23.1c-2.06,0-3.7,1.75-3.7,3.91v.85l25.94,16.37,25.94-16.37v-.85c0-2.16-1.67-3.91-3.7-3.91H21.24ZM69.4,32.39l-17.46,11.02,17.46,11.3v-22.32ZM69.28,59.22l-20.91-13.52-4.91,3.1-4.91-3.1-20.91,13.52c.42,1.72,1.91,2.88,3.58,2.88h44.46c1.67,0,3.15-1.19,3.58-2.88M17.51,54.71l17.46-11.3-17.46-11.02v22.32Z"/>
</svg>